<?xml version="1.0" encoding="UTF-8" standalone="no"?>
<svg
   viewBox="0 0 228.66 39.08"
   version="1.1"
   id="svg14"
   sodipodi:docname="navbar-logo.svg"
   inkscape:version="1.4.2 (ebf0e940, 2025-05-08)"
   xmlns:inkscape="http://www.inkscape.org/namespaces/inkscape"
   xmlns:sodipodi="http://sodipodi.sourceforge.net/DTD/sodipodi-0.dtd"
   xmlns="http://www.w3.org/2000/svg"
   xmlns:svg="http://www.w3.org/2000/svg">
  <defs
     id="defs14" />
  <sodipodi:namedview
     id="namedview14"
     pagecolor="#ffffff"
     bordercolor="#000000"
     borderopacity="0.25"
     inkscape:showpageshadow="2"
     inkscape:pageopacity="0.0"
     inkscape:pagecheckerboard="0"
     inkscape:deskcolor="#d1d1d1"
     inkscape:zoom="1.3293035"
     inkscape:cx="109.45582"
     inkscape:cy="39.494367"
     inkscape:window-width="1088"
     inkscape:window-height="486"
     inkscape:window-x="484"
     inkscape:window-y="467"
     inkscape:window-maximized="0"
     inkscape:current-layer="svg14" />
  <style
     id="style1">.cls-1{fill:#fed136;}</style>
  <path
     d="m 22.2525,11.357652 q -0.756,0 -1.332,-0.264 -0.576,-0.264 -0.888,-0.732 -0.312,-0.4799999 -0.312,-1.1039999 0,-0.528 0.216,-0.96 0.228,-0.432 0.6,-0.684 0.384,-0.252 0.84,-0.252 0.42,0 0.708,0.216 0.288,0.204 0.36,0.576 -0.624,0 -0.996,0.336 -0.372,0.324 -0.372,0.888 0,0.516 0.312,0.8279999 0.312,0.312 0.828,0.312 0.636,0 1.044,-0.42 0.42,-0.4319999 0.42,-1.0799999 0,-0.564 -0.312,-1.068 -0.312,-0.504 -0.936,-1.224 -0.648,-0.744 -0.984,-1.272 -0.324,-0.54 -0.324,-1.176 0,-0.624 0.348,-1.116 0.348,-0.504 0.96,-0.792 0.612,-0.288 1.38,-0.288 0.972,0 1.548,0.456 0.588,0.456 0.588,1.224 0,0.504 -0.252,0.816 -0.252,0.312 -0.66,0.312 -0.456,0 -0.732,-0.372 0.228,-0.168 0.36,-0.444 0.132,-0.276 0.132,-0.576 0,-0.384 -0.228,-0.612 -0.228,-0.228 -0.624,-0.228 -0.48,0 -0.792,0.348 -0.3,0.336 -0.3,0.864 0,0.48 0.276,0.9 0.276,0.408 0.864,1.056 0.48,0.516 0.768,0.888 0.3,0.372 0.504,0.864 0.216,0.48 0.216,1.044 0,0.768 -0.432,1.3919999 -0.42,0.624 -1.164,0.984 -0.732,0.36 -1.632,0.36 z"
     id="text7"
     style="font-size:12px;font-family:Lobster;-inkscape-font-specification:'Lobster, Normal';white-space:pre;inline-size:88.7674;fill:#e3dedb"
     transform="matrix(4.0506297,0,0,3.029142,-70.549742,-2.1962438)"
     aria-label="S" />
  <path
     d="m 30.004344,2.8976521 q -0.912,0.3 -1.416,0.996 -0.492,0.684 -0.492,1.704 0,0.456 0.084,0.624 0.084,0.168 0.084,0.204 -1.284,0 -1.284,-1.092 0,-0.744 0.564,-1.488 0.576,-0.756 1.464,-1.224 0.9,-0.48 1.788,-0.48 0.444,0 0.912,0.168 l -0.276,6.324 2.64,-6.324 h 1.728 l -1.26,8.8319999 h -1.728 l 0.768,-5.3879999 -2.256,5.3879999 h -1.644 l 0.24,-5.4119999 -2.004,5.4119999 h -0.96 z"
     id="text6"
     style="font-size:12px;font-family:Lobster;-inkscape-font-specification:'Lobster, Normal';white-space:pre;inline-size:88.7674;fill:#e3dedb"
     transform="matrix(4.0506297,0,0,3.029142,-70.549742,-2.1962438)"
     aria-label="M" />
  <path
     d="m 38.451703,11.333652 q -1.356,0 -1.992,-0.684 -0.636,-0.6839999 -0.636,-2.2679999 0,-1.26 0.42,-2.712 0.432,-1.452 1.368,-2.484 0.948,-1.044 2.4,-1.044 0.9,0 1.452,0.396 0.552,0.396 0.552,1.212 0,0.516 -0.204,0.816 -0.204,0.288 -0.636,0.288 -0.432,0 -0.684,-0.312 0.216,-0.108 0.384,-0.432 0.168,-0.324 0.168,-0.672 0,-0.324 -0.18,-0.528 -0.168,-0.204 -0.552,-0.204 -0.636,0 -1.212,0.876 -0.576,0.864 -0.936,2.184 -0.348,1.32 -0.348,2.544 0,0.912 0.312,1.392 0.312,0.4799999 1.128,0.4799999 0.708,0 1.308,-0.3119999 0.6,-0.312 1.032,-0.888 l 0.276,0.12 q -0.3,0.756 -0.888,1.2599999 -0.588,0.504 -1.26,0.744 -0.672,0.228 -1.272,0.228 z"
     id="text5"
     style="font-size:12px;font-family:Lobster;-inkscape-font-specification:'Lobster, Normal';white-space:pre;inline-size:88.7674;fill:#e3dedb"
     transform="matrix(4.0506297,0,0,3.029142,-70.549742,-2.1962438)"
     aria-label="C" />
  <path
     d="m 43.540547,13.625652 q -0.852,0 -1.32,-0.468 -0.456,-0.456 -0.456,-1.224 0,-0.648 0.396,-1.128 0.396,-0.48 1.068,-0.48 0.516,0 0.84,0.156 0.336,0.144 0.336,0.648 0,0.216 -0.072,0.48 -0.216,-0.18 -0.372,-0.252 -0.156,-0.06 -0.348,-0.06 -0.396,0 -0.624,0.264 -0.216,0.264 -0.216,0.624 0,0.42 0.252,0.624 0.252,0.216 0.564,0.216 0.288,0 0.48,-0.12 0.204,-0.108 0.36,-0.432 0.156,-0.312 0.3,-0.924 l 1.884,-8.5679999 q -0.804,0.324 -1.248,0.996 -0.444,0.672 -0.444,1.632 0,0.444 0.084,0.624 0.084,0.168 0.084,0.192 -0.648,0 -0.972,-0.264 -0.312,-0.276 -0.312,-0.9 0,-0.768 0.624,-1.488 0.636,-0.732 1.62,-1.176 0.984,-0.456 1.968,-0.456 h 0.48 l -1.8,8.5199999 q -0.312,1.476 -1.032,2.22 -0.72,0.744 -2.124,0.744 z"
     id="text4"
     style="font-size:12px;font-family:Lobster;-inkscape-font-specification:'Lobster, Normal';white-space:pre;inline-size:88.7674;fill:#e3dedb"
     transform="matrix(4.0506297,0,0,3.029142,-70.549742,-2.1962438)"
     aria-label="J" />
  <path
     d="m 50.968187,2.9456521 q -0.851999,0.324 -1.32,1.008 -0.467999,0.672 -0.467999,1.656 0,0.444 0.084,0.624 0.084,0.168 0.084,0.192 -0.648001,0 -0.972001,-0.264 -0.311999,-0.276 -0.311999,-0.9 0,-0.768 0.623999,-1.488 0.636,-0.732 1.620001,-1.176 0.983999,-0.456 1.967999,-0.456 0.168,0 0.480001,0.024 l 0.107999,7.38 2.52,-7.344 h 1.524 l 0.108,7.344 2.52,-7.344 h 0.84 L 57.040188,11.141652 H 55.312187 L 55.168188,5.0336521 52.888187,11.141652 h -1.728 z"
     id="text3"
     style="font-size:12px;font-family:Lobster;-inkscape-font-specification:'Lobster, Normal';white-space:pre;inline-size:88.7674;fill:#e3dedb"
     transform="matrix(4.0506297,0,0,3.029142,-70.549742,-2.1962438)"
     aria-label="W" />
  <path
     d="m 63.293109,11.285652 q -0.24,0 -0.504,-0.06 -0.252,-0.06 -0.624,-0.168 -0.444,-0.132 -0.732,-0.192 -0.288,-0.06 -0.6,-0.06 -0.672,0 -1.32,0.348 h -0.048 q -0.072,-0.288 -0.072,-0.564 0,-0.504 0.252,-0.9839999 0.264,-0.492 0.636,-0.9 0.372,-0.408 1.02,-1.044 0.684,-0.66 1.104,-1.128 0.42,-0.48 0.708,-1.044 0.288,-0.576 0.288,-1.2 0,-0.684 -0.228,-1.08 -0.216,-0.396 -0.672,-0.396 -0.42,0 -0.684,0.288 -0.264,0.276 -0.264,0.684 0,0.408 0.156,0.732 0.168,0.312 0.42,0.456 v 0.048 q -0.204,0.192 -0.444,0.3 -0.24,0.108 -0.468,0.108 -0.372,0 -0.624,-0.336 -0.24,-0.336 -0.24,-0.912 0,-0.504 0.288,-0.972 0.3,-0.468 0.876,-0.768 0.576,-0.3 1.356,-0.3 1.044,0 1.68,0.588 0.648,0.576 0.648,1.596 0,0.648 -0.336,1.2 -0.324,0.552 -0.804,0.984 -0.48,0.432 -1.284,1.044 -0.792,0.6 -1.26,1.032 -0.468,0.432 -0.72,0.912 0.348,-0.096 0.744,-0.096 0.288,0 0.6,0.048 0.312,0.048 0.588,0.108 0.048,0.012 0.312,0.072 0.276,0.048 0.492,0.048 0.324,0 0.6,-0.132 0.276,-0.144 0.576,-0.48 l 0.036,0.024 q 0.156,0.444 0.156,0.744 0,0.4199999 -0.228,0.7559999 -0.216,0.324 -0.588,0.516 -0.372,0.18 -0.792,0.18 z"
     id="text2"
     style="font-size:12px;font-family:Lobster;-inkscape-font-specification:'Lobster, Normal';white-space:pre;inline-size:88.7674;fill:#e3dedb"
     transform="matrix(4.0506297,0,0,3.029142,-70.549742,-2.1962438)"
     aria-label="2" />
  <path
     d="m 68.104844,11.201652 q -1.26,0 -1.86,-0.744 -0.588,-0.7559999 -0.588,-2.4239999 0,-1.608 0.552,-2.952 0.564,-1.356 1.524,-2.136 0.96,-0.792 2.112,-0.792 0.792,0 1.26,0.372 0.48,0.372 0.48,0.984 0,0.468 -0.252,0.792 -0.252,0.312 -0.624,0.312 -0.204,0 -0.372,-0.108 -0.168,-0.108 -0.24,-0.276 0.192,-0.096 0.288,-0.288 0.108,-0.192 0.108,-0.408 0,-0.276 -0.168,-0.468 -0.156,-0.204 -0.456,-0.204 -0.492,0 -0.972,0.516 -0.468,0.516 -0.84,1.428 -0.372,0.9 -0.54,2.016 l 0.036,-0.012 q 0.216,-0.552 0.708,-0.84 0.492,-0.288 1.164,-0.288 0.828,0 1.332,0.564 0.504,0.552 0.504,1.512 0,0.888 -0.432,1.68 -0.432,0.7919999 -1.164,1.2839999 -0.72,0.48 -1.56,0.48 z m 0.252,-0.936 q 0.336,0 0.648,-0.3239999 0.324,-0.336 0.528,-0.9 0.204,-0.576 0.204,-1.248 0,-0.648 -0.264,-0.948 -0.252,-0.312 -0.696,-0.312 -1.368,0 -1.368,1.98 0,1.7519999 0.948,1.7519999 z"
     id="text1"
     style="font-size:12px;font-family:Lobster;-inkscape-font-specification:'Lobster, Normal';white-space:pre;inline-size:88.7674;fill:#e3dedb"
     transform="matrix(4.0506297,0,0,3.029142,-70.549742,-2.1962438)"
     aria-label="6" />
</svg>
